<svg xmlns="http://www.w3.org/2000/svg" viewBox="0 0 600 750" width="600" height="750">
  <defs>
    <linearGradient id="space" x1="0" y1="0" x2="0" y2="1"><stop offset="0" stop-color="#0B0B2B"/><stop offset="1" stop-color="#05050F"/></linearGradient>
    <linearGradient id="brand" x1="0" y1="0" x2="1" y2="1"><stop offset="0" stop-color="#22D3EE"/><stop offset=".5" stop-color="#7C3AED"/><stop offset="1" stop-color="#EC4899"/></linearGradient>
    <radialGradient id="glow" cx=".5" cy=".5" r=".5"><stop offset="0" stop-color="#7C3AED" stop-opacity=".45"/><stop offset="1" stop-color="#7C3AED" stop-opacity="0"/></radialGradient>
  </defs>
  <rect width="600" height="750" fill="url(#space)"/>
  <circle cx="180.2" cy="74.8" r="1.0" fill="#fff" opacity="0.34"/><circle cx="234.6" cy="211.4" r="1.6" fill="#fff" opacity="0.23"/><circle cx="442.1" cy="419.1" r="1.2" fill="#fff" opacity="0.33"/><circle cx="217.5" cy="438.4" r="0.7" fill="#fff" opacity="0.53"/><circle cx="486.7" cy="565.9" r="2.5" fill="#fff" opacity="0.53"/><circle cx="20.1" cy="569.8" r="1.3" fill="#fff" opacity="0.50"/><circle cx="565.8" cy="607.7" r="2.4" fill="#fff" opacity="0.50"/><circle cx="383.2" cy="392.5" r="1.7" fill="#fff" opacity="0.73"/><circle cx="175.9" cy="359.4" r="1.5" fill="#fff" opacity="0.52"/><circle cx="425.3" cy="332.5" r="1.1" fill="#fff" opacity="0.65"/><circle cx="324.2" cy="191.4" r="2.8" fill="#fff" opacity="0.65"/><circle cx="109.4" cy="287.9" r="1.1" fill="#fff" opacity="0.79"/><circle cx="195.9" cy="112.9" r="2.7" fill="#fff" opacity="0.77"/><circle cx="109.6" cy="462.5" r="2.8" fill="#fff" opacity="0.67"/><circle cx="220.7" cy="105.3" r="1.7" fill="#fff" opacity="0.49"/><circle cx="277.6" cy="448.8" r="2.0" fill="#fff" opacity="0.67"/><circle cx="139.4" cy="205.8" r="1.0" fill="#fff" opacity="0.61"/><circle cx="309.9" cy="311.6" r="2.4" fill="#fff" opacity="0.65"/><circle cx="470.4" cy="340.3" r="2.6" fill="#fff" opacity="0.75"/><circle cx="213.7" cy="671.4" r="1.1" fill="#fff" opacity="0.26"/><circle cx="176.7" cy="656.8" r="2.5" fill="#fff" opacity="0.44"/><circle cx="574.3" cy="287.3" r="1.8" fill="#fff" opacity="0.20"/><circle cx="132.4" cy="109.1" r="2.3" fill="#fff" opacity="0.62"/><circle cx="221.4" cy="140.9" r="1.3" fill="#fff" opacity="0.28"/><circle cx="389.4" cy="39.9" r="0.8" fill="#fff" opacity="0.64"/><circle cx="295.6" cy="519.1" r="1.7" fill="#fff" opacity="0.29"/><circle cx="243.8" cy="13.8" r="2.5" fill="#fff" opacity="0.57"/><circle cx="315.5" cy="98.0" r="1.2" fill="#fff" opacity="0.65"/><circle cx="503.2" cy="151.3" r="0.8" fill="#fff" opacity="0.27"/><circle cx="44.0" cy="25.7" r="0.9" fill="#fff" opacity="0.50"/><circle cx="152.8" cy="211.7" r="2.3" fill="#fff" opacity="0.64"/><circle cx="555.3" cy="255.8" r="1.0" fill="#fff" opacity="0.36"/><circle cx="22.0" cy="676.4" r="2.5" fill="#fff" opacity="0.47"/><circle cx="301.1" cy="131.0" r="1.1" fill="#fff" opacity="0.40"/><circle cx="251.8" cy="582.4" r="1.7" fill="#fff" opacity="0.37"/><circle cx="577.8" cy="216.0" r="1.9" fill="#fff" opacity="0.29"/><circle cx="560.6" cy="355.8" r="1.3" fill="#fff" opacity="0.35"/><circle cx="592.8" cy="131.3" r="2.0" fill="#fff" opacity="0.68"/><circle cx="311.4" cy="644.5" r="0.8" fill="#fff" opacity="0.35"/><circle cx="131.2" cy="636.1" r="2.1" fill="#fff" opacity="0.27"/>
  <circle cx="300" cy="390" r="260" fill="url(#glow)"/>
  <ellipse cx="300" cy="400" rx="250" ry="70" fill="none" stroke="url(#brand)" stroke-width="3" opacity=".55" transform="rotate(-18 300 400)"/>
  <g transform="translate(300 300) scale(.5) translate(-400 -470)"><path d="M310 180 Q400 245 490 180 L600 212 L705 330 L632 395 L582 352 L582 762 Q400 784 218 762 L218 352 L168 395 L95 330 L200 212 Z" fill="url(#brand)"/></g><g transform="translate(300 545) scale(.42) translate(-400 -510)"><path d="M228 300 L572 300 L606 708 L432 722 L400 480 L368 722 L194 708 Z" fill="url(#brand)"/></g>
</svg>