<svg xmlns="http://www.w3.org/2000/svg" viewBox="0 0 800 1000" width="800" height="1000" preserveAspectRatio="xMidYMid slice">
  <defs>
    <linearGradient id="bg" x1="0" y1="0" x2="0" y2="1"><stop offset="0" stop-color="#EEF2FB"/><stop offset="1" stop-color="#DDE4F5"/></linearGradient>
    <linearGradient id="shade" x1="0" y1="0" x2="1" y2="0"><stop offset="0" stop-color="#fff" stop-opacity=".16"/><stop offset=".5" stop-color="#fff" stop-opacity="0"/><stop offset="1" stop-color="#000" stop-opacity=".12"/></linearGradient>
    <radialGradient id="shadow"><stop offset="0" stop-color="#1E1B4B" stop-opacity=".22"/><stop offset="1" stop-color="#1E1B4B" stop-opacity="0"/></radialGradient>
  </defs>
  <rect x="-1000" y="-1000" width="3000" height="3000" fill="url(#bg)"/>
  <ellipse cx="400" cy="880" rx="300" ry="40" fill="url(#shadow)"/>
  
  <path d="M228 300 L572 300 L606 708 L432 722 L400 480 L368 722 L194 708 Z" fill="#7C3AED"/>
  <path d="M228 300 L572 300 L606 708 L432 722 L400 480 L368 722 L194 708 Z" fill="url(#shade)"/>
  
      <path d="M228 300 H572 L576 352 H224 Z" fill="#000000" opacity=".3"/>
      <path d="M392 352 Q384 400 370 410 M408 352 Q416 400 430 410" stroke="#000000" stroke-width="7" stroke-linecap="round" fill="none" opacity=".7"/>
  <g transform="translate(505 610) scale(0.45)">
    <ellipse rx="120" ry="44" fill="none" stroke="#FFFFFF" stroke-width="12" transform="rotate(-24)"/>
    <circle r="34" fill="#4FD8FF"/>
    <path d="M104 -86 Q108 -58 136 -54 Q108 -50 104 -22 Q100 -50 72 -54 Q100 -58 104 -86 Z" fill="#FFFFFF"/></g>
</svg>