<svg xmlns="http://www.w3.org/2000/svg" viewBox="0 0 800 1000" width="800" height="1000" preserveAspectRatio="xMidYMid slice">
  <defs>
    <linearGradient id="bg" x1="0" y1="0" x2="0" y2="1"><stop offset="0" stop-color="#EEF2FB"/><stop offset="1" stop-color="#DDE4F5"/></linearGradient>
    <linearGradient id="shade" x1="0" y1="0" x2="1" y2="0"><stop offset="0" stop-color="#fff" stop-opacity=".16"/><stop offset=".5" stop-color="#fff" stop-opacity="0"/><stop offset="1" stop-color="#000" stop-opacity=".12"/></linearGradient>
    <radialGradient id="shadow"><stop offset="0" stop-color="#1E1B4B" stop-opacity=".22"/><stop offset="1" stop-color="#1E1B4B" stop-opacity="0"/></radialGradient>
  </defs>
  <rect x="-1000" y="-1000" width="3000" height="3000" fill="url(#bg)"/>
  <ellipse cx="400" cy="880" rx="300" ry="40" fill="url(#shadow)"/>
  
  <path d="M228 300 L572 300 L606 708 L432 722 L400 480 L368 722 L194 708 Z" fill="#0E7490"/>
  <path d="M228 300 L572 300 L606 708 L432 722 L400 480 L368 722 L194 708 Z" fill="url(#shade)"/>
  
      <path d="M228 300 H572 L576 352 H224 Z" fill="#000000" opacity=".3"/>
      <path d="M392 352 Q384 400 370 410 M408 352 Q416 400 430 410" stroke="#000000" stroke-width="7" stroke-linecap="round" fill="none" opacity=".7"/>
  <g transform="translate(505 610) scale(0.45)">
    <path d="M0 -84 Q8 -8 84 0 Q8 8 0 84 Q-8 8 -84 0 Q-8 -8 0 -84 Z" fill="#FFFFFF"/>
    <path d="M86 -66 Q90 -36 120 -32 Q90 -28 86 2 Q82 -28 52 -32 Q82 -36 86 -66 Z" fill="#4FD8FF"/>
    <path d="M-92 52 Q-89 74 -66 78 Q-89 82 -92 104 Q-95 82 -118 78 Q-95 74 -92 52 Z" fill="#4FD8FF"/></g>
</svg>